<?xml version="1.0" standalone="no"?><!DOCTYPE svg PUBLIC "-//W3C//DTD SVG 1.1//EN" "http://www.w3.org/Graphics/SVG/1.1/DTD/svg11.dtd"><svg t="1777733864697" class="icon" viewBox="0 0 1024 1024" version="1.1" xmlns="http://www.w3.org/2000/svg" p-id="11293" xmlns:xlink="http://www.w3.org/1999/xlink" width="48" height="48"><path d="M702.24 112.256l6.4 3.84 192.128 122.464A128.128 128.128 0 0 1 960 346.56v453.28A128.096 128.096 0 0 1 831.904 928H447.68a127.744 127.744 0 0 1-94.496-41.6l-222.72-70.112a96 96 0 0 1-61.696-120.96l136.576-420.16A96.032 96.032 0 0 1 272.64 211.936l225.888-49.664 72.448-46.176a128.064 128.064 0 0 1 131.296-3.808z m-96.864 58.464l-192.128 122.464a64.064 64.064 0 0 0-29.632 54.016v452.672c0 35.392 28.672 64.064 64.032 64.064h384.256A64.064 64.064 0 0 0 896 799.872V347.2c0-21.888-11.2-42.24-29.632-54.016l-192.128-122.464a64 64 0 0 0-68.832 0zM353.6 259.584l-64.96 14.304a32 32 0 0 0-22.432 21.088L129.6 715.104a32 32 0 0 0 20.576 40.32L320 810.336a129.888 129.888 0 0 1-0.416-10.464V346.592c0-32.64 12.416-63.616 34.048-87.008zM765.312 608a96.032 96.032 0 1 1-96.064 96c0-53.024 43.008-96 96.064-96z m-246.784 75.648l226.432-226.272a32.032 32.032 0 0 1 47.936 42.24l-2.656 3.008-226.432 226.272a32.032 32.032 0 0 1-47.936-42.24l2.656-3.008 226.432-226.272-226.432 226.272zM765.312 672a32 32 0 1 0 0 64 32 32 0 0 0 0-64z m-224.128-288a96.032 96.032 0 1 1-96.064 96c0-53.024 43.008-96 96.064-96z m0 64a32 32 0 1 0-0.032 64 32 32 0 0 0 0-64z" fill="#141414" p-id="11294"></path></svg>
