<?xml version="1.0" standalone="no"?><!DOCTYPE svg PUBLIC "-//W3C//DTD SVG 1.1//EN" "http://www.w3.org/Graphics/SVG/1.1/DTD/svg11.dtd"><svg t="1777736553157" class="icon" viewBox="0 0 1024 1024" version="1.1" xmlns="http://www.w3.org/2000/svg" p-id="19694" xmlns:xlink="http://www.w3.org/1999/xlink" width="48" height="48"><path d="M960 374.4 960 279.136c0-35.2-28.512-63.744-63.712-63.744L127.712 215.392C92.512 215.392 64 243.936 64 279.136L64 374.4c17.664 0 32 14.336 32 32s-14.336 32-32 32l0 144c17.664 0 32 14.336 32 32s-14.336 32-32 32l0 97.248c0 35.2 28.512 63.744 63.712 63.744l768.576 0c35.2 0 63.712-28.544 63.712-63.744L960 646.4c-17.664 0-32-14.336-32-32s14.336-32 32-32l0-144c-17.664 0-32-14.336-32-32S942.336 374.4 960 374.4zM896 336.512c-19.52 17.568-32 42.752-32 71.072s12.48 53.504 32 71.072l0 62.624c-19.52 17.568-32 42.752-32 71.072s12.48 53.504 32 71.072l0 26.848c0 17.696-14.336 32.064-32 32.064L160 742.336c-17.664 0-32-14.336-32-32.064l0-25.408c19.52-17.568 32-42.752 32-71.072s-12.48-53.504-32-71.072l0-65.28c19.52-17.568 32-42.752 32-71.072s-12.48-53.504-32-71.072L128 310.464C128 292.736 142.336 278.4 160 278.4l704 0c17.664 0 32 14.336 32 32.064L896 336.512zM640.896 495.008c17.696 0 32.064-14.368 32.064-32.064 0-17.696-14.368-32.064-32.064-32.064l-82.464 0 71.584-71.584c12.512-12.512 12.512-32.832 0-45.344s-32.832-12.512-45.344 0l-72.928 72.928L438.816 313.92c-12.512-12.512-32.832-12.512-45.344 0-12.512 12.512-12.512 32.832 0 45.344l71.584 71.584-80.576 0c-17.696 0-32.064 14.368-32.064 32.064 0 17.696 14.368 32.064 32.064 32.064l98.144 0 0 63.84-98.144 0c-17.696 0-32.064 14.368-32.064 32.064 0 17.696 14.368 32.064 32.064 32.064l98.144 0 0 65.152c0 17.696 14.368 32.064 32.064 32.064s32.064-14.368 32.064-32.064l0-65.152 94.144 0c17.696 0 32.064-14.368 32.064-32.064 0-17.696-14.368-32.064-32.064-32.064l-94.144 0 0-63.84L640.896 494.976z" fill="#272636" p-id="19695"></path></svg>
