<?xml version="1.0" standalone="no"?><!DOCTYPE svg PUBLIC "-//W3C//DTD SVG 1.1//EN" "http://www.w3.org/Graphics/SVG/1.1/DTD/svg11.dtd"><svg t="1777733760068" class="icon" viewBox="0 0 1024 1024" version="1.1" xmlns="http://www.w3.org/2000/svg" p-id="9284" xmlns:xlink="http://www.w3.org/1999/xlink" width="48" height="48"><path d="M666.069333 61.696c58.026667-51.925333 147.626667-49.194667 203.861334 7.04 50.986667 50.986667 58.026667 129.322667 20.224 186.752l69.845333-0.042667a64 64 0 0 1 63.701333 57.813334l0.298667 6.186666v213.333334a64 64 0 0 1-57.856 63.701333l-6.144 0.298667H938.666667V960a64 64 0 0 1-57.856 63.701333L874.666667 1024h-725.333334a64 64 0 0 1-63.701333-57.856L85.333333 960v-363.221333h-21.333333A64 64 0 0 1 0.298667 538.88L0 532.778667v-213.333334a64 64 0 0 1 57.856-63.701333l6.144-0.298667h69.845333c-37.76-57.386667-30.72-135.722667 20.224-186.709333C210.304 12.501333 299.946667 9.770667 357.930667 61.696l5.888 5.546667L512 215.552l148.181333-148.224 5.888-5.546667zM469.333333 597.333333H170.666667v341.333334h298.666666v-341.333334z m384 0h-298.666666v341.333334h298.666666v-341.333334z m-384-256.597333H85.333333v170.666667h384v-170.666667z m469.333334 0h-384v170.666667h384v-170.666667z m-129.066667-211.626667c-23.552-23.594667-60.074667-25.386667-84.394667-5.717333l-4.693333 4.266667-127.829333 127.786666h181.034666l37.333334-37.333333 3.968-4.394667c19.968-24.32 18.218667-61.013333-5.418667-84.650666z m-595.2 0c-23.637333 23.594667-25.386667 60.330667-5.418667 84.608l3.968 4.394667 37.333334 37.333333h180.992L303.445333 127.573333c-24.021333-24.064-63.914667-23.68-89.045333 1.450667z" fill="#141414" p-id="9285"></path></svg>
