<?xml version="1.0" standalone="no"?><!DOCTYPE svg PUBLIC "-//W3C//DTD SVG 1.1//EN" "http://www.w3.org/Graphics/SVG/1.1/DTD/svg11.dtd"><svg t="1778938339178" class="icon" viewBox="0 0 1024 1024" version="1.1" xmlns="http://www.w3.org/2000/svg" p-id="4758" xmlns:xlink="http://www.w3.org/1999/xlink" width="256" height="256"><path d="M498.413564 173.927261c7.472182-15.140839 19.700691-15.140839 27.172872 0l90.714048 183.80626c7.472182 15.140839 27.257807 29.515221 43.966351 31.943526l202.841801 29.474288c16.708544 2.428306 20.487613 14.057157 8.397251 25.842575L724.726939 588.067466c-12.090363 11.785417-19.648502 35.044144-16.793478 51.686173l34.649148 202.022133c2.854001 16.642029-7.0383 23.828708-21.983687 15.971763l-181.427073-95.382371c-14.945387-7.856945-39.400359-7.856945-54.345745 0l-181.427073 95.382371c-14.945387 7.856945-24.837688 0.669242-21.983687-15.971763l34.649148-202.022133c2.854001-16.642029-4.703115-39.899732-16.793478-51.686173L152.494113 444.994933c-12.090363-11.785417-8.312316-23.415292 8.397251-25.842574l202.841801-29.474289c16.709567-2.428306 36.494169-16.802688 43.966351-31.943526l90.714048-183.807283z" fill="#010101" p-id="4759"></path></svg>